<svg xmlns="http://www.w3.org/2000/svg" width="960" height="720" viewBox="0 0 960 720" role="img" aria-labelledby="title desc">
  <title id="title">MiniCRM placeholder</title>
  <desc id="desc">Replace this file with a screenshot image.</desc>
  <rect width="960" height="720" fill="#eff6ff"/>
  <rect x="96" y="80" width="768" height="560" rx="24" fill="#ffffff" stroke="#bfdbfe" stroke-width="4"/>
  <rect x="96" y="80" width="190" height="560" rx="24" fill="#1e3a8a"/>
  <rect x="136" y="136" width="102" height="20" rx="8" fill="#ffffff"/>
  <rect x="136" y="212" width="104" height="14" rx="7" fill="#bfdbfe"/>
  <rect x="136" y="258" width="116" height="14" rx="7" fill="#bfdbfe"/>
  <rect x="334" y="132" width="244" height="24" rx="8" fill="#1d4ed8"/>
  <rect x="334" y="204" width="464" height="54" rx="14" fill="#f8fafc"/>
  <rect x="334" y="284" width="464" height="54" rx="14" fill="#f8fafc"/>
  <rect x="334" y="364" width="464" height="54" rx="14" fill="#f8fafc"/>
  <rect x="334" y="470" width="200" height="76" rx="16" fill="#dbeafe"/>
  <rect x="566" y="470" width="232" height="76" rx="16" fill="#e0f2fe"/>
  <text x="334" y="590" fill="#1e3a8a" font-family="Arial, sans-serif" font-size="34" font-weight="700">MiniCRM</text>
</svg>
